<?xml version="1.0" encoding="UTF-8" standalone="no"?>
<!DOCTYPE svg PUBLIC "-//W3C//DTD SVG 1.1//EN" "http://www.w3.org/Graphics/SVG/1.1/DTD/svg11.dtd">
<svg version="1.1" xmlns="http://www.w3.org/2000/svg" xmlns:xlink="http://www.w3.org/1999/xlink" preserveAspectRatio="xMidYMid meet" viewBox="0 0 80 80" width="80" height="80"><defs><path d="M43.77 0.25L43.82 0.38L43.87 0.52L43.93 0.66L43.98 0.8L44.03 0.95L44.08 1.1L44.13 1.26L44.18 1.42L44.23 1.59L44.28 1.76L44.33 1.93L44.38 2.11L44.43 2.3L44.47 2.48L44.52 2.67L44.57 2.87L44.61 3.07L44.66 3.27L44.7 3.48L44.75 3.69L44.8 3.91L44.84 4.13L44.88 4.35L44.93 4.58L44.97 4.81L45.02 5.05L45.06 5.29L45.1 5.53L45.15 5.78L45.19 6.03L45.23 6.29L45.27 6.55L45.32 6.81L45.36 7.08L45.4 7.35L45.44 7.63L45.48 7.91L45.53 8.19L45.53 8.24L45.54 8.3L45.55 8.35L45.56 8.41L45.57 8.46L45.57 8.52L45.58 8.58L45.59 8.63L45.6 8.69L45.6 8.74L45.61 8.8L45.62 8.86L45.63 8.91L45.64 8.97L45.64 9.03L45.65 9.08L45.66 9.14L45.67 9.2L45.67 9.26L45.68 9.31L45.69 9.37L45.7 9.43L45.7 9.49L45.71 9.54L45.72 9.6L45.73 9.66L45.73 9.72L45.74 9.78L45.75 9.84L45.76 9.89L45.76 9.95L45.77 10.01L45.78 10.07L45.79 10.13L45.8 10.25L45.81 10.31L45.81 10.36L45.82 10.42L45.83 10.48L46.05 10.53L46.28 10.58L46.5 10.63L46.72 10.68L46.94 10.73L47.16 10.78L47.38 10.84L47.6 10.9L47.82 10.96L48.04 11.02L48.26 11.08L48.48 11.15L48.69 11.21L48.91 11.28L49.12 11.35L49.34 11.42L49.55 11.49L49.76 11.57L49.97 11.64L50.19 11.72L50.4 11.8L50.61 11.88L50.81 11.96L51.02 12.05L51.23 12.13L51.44 12.22L51.64 12.31L51.85 12.4L52.05 12.49L52.25 12.58L52.46 12.67L52.66 12.77L52.86 12.87L53.06 12.97L53.26 13.07L53.46 13.17L53.66 13.27L53.85 13.38L54.05 13.48L54.24 13.59L54.33 13.51L54.42 13.43L54.46 13.39L54.5 13.35L54.54 13.31L54.63 13.23L54.67 13.19L54.72 13.15L54.76 13.11L54.8 13.07L54.84 13.03L54.89 12.99L54.93 12.95L54.97 12.91L55.01 12.87L55.06 12.83L55.1 12.79L55.14 12.75L55.18 12.71L55.23 12.67L55.27 12.63L55.31 12.59L55.35 12.56L55.39 12.52L55.43 12.48L55.48 12.44L55.52 12.4L55.56 12.36L55.6 12.33L55.64 12.29L55.68 12.25L55.72 12.21L55.77 12.18L55.81 12.14L55.85 12.1L55.89 12.07L55.93 12.03L56.14 11.84L56.35 11.65L56.56 11.47L56.76 11.29L56.97 11.11L57.17 10.93L57.37 10.76L57.57 10.59L57.77 10.42L57.96 10.26L58.15 10.09L58.34 9.94L58.53 9.78L58.72 9.63L58.9 9.48L59.08 9.34L59.26 9.19L59.44 9.06L59.62 8.92L59.79 8.79L59.96 8.66L60.13 8.53L60.29 8.41L60.45 8.29L60.61 8.18L60.77 8.07L60.93 7.96L61.08 7.86L61.23 7.75L61.38 7.66L61.52 7.56L61.67 7.47L61.81 7.39L61.94 7.31L62.08 7.23L62.21 7.15L62.34 7.08L62.46 7.02L62.59 6.95L62.71 6.9L68.27 11.49L68.24 11.62L68.2 11.75L68.15 11.89L68.11 12.03L68.06 12.18L68 12.33L67.94 12.48L67.88 12.64L67.82 12.8L67.75 12.96L67.68 13.13L67.61 13.3L67.53 13.48L67.45 13.65L67.37 13.83L67.29 14.02L67.2 14.21L67.1 14.4L67.01 14.59L66.91 14.79L66.81 14.98L66.71 15.19L66.6 15.39L66.49 15.6L66.38 15.81L66.27 16.02L66.15 16.24L66.03 16.46L65.91 16.68L65.79 16.9L65.66 17.13L65.53 17.35L65.4 17.58L65.26 17.82L65.13 18.05L64.99 18.29L64.85 18.53L64.7 18.77L64.56 19.01L64.41 19.26L64.38 19.3L64.35 19.35L64.32 19.4L64.29 19.45L64.26 19.49L64.23 19.54L64.21 19.59L64.18 19.64L64.15 19.69L64.12 19.73L64.09 19.78L64.06 19.83L64.03 19.88L64 19.93L63.96 19.98L63.93 20.03L63.9 20.08L63.87 20.13L63.84 20.17L63.81 20.22L63.78 20.27L63.75 20.32L63.72 20.37L63.69 20.42L63.66 20.47L63.62 20.52L63.59 20.57L63.56 20.62L63.53 20.67L63.5 20.72L63.47 20.77L63.44 20.82L63.4 20.87L63.37 20.92L63.34 20.97L63.31 21.02L63.28 21.07L63.24 21.12L63.21 21.17L63.18 21.22L63.32 21.4L63.46 21.58L63.59 21.76L63.73 21.94L63.86 22.12L63.99 22.3L64.12 22.49L64.25 22.67L64.38 22.86L64.51 23.04L64.63 23.23L64.76 23.42L64.88 23.61L65 23.8L65.12 23.99L65.24 24.19L65.35 24.38L65.47 24.57L65.58 24.77L65.7 24.97L65.81 25.16L65.92 25.36L66.03 25.56L66.13 25.76L66.24 25.96L66.34 26.17L66.45 26.37L66.55 26.57L66.65 26.78L66.74 26.98L66.84 27.19L66.94 27.4L67.03 27.6L67.12 27.81L67.21 28.02L67.3 28.23L67.39 28.45L67.48 28.66L67.56 28.87L67.65 29.08L67.76 29.08L67.94 29.07L68 29.07L68.12 29.06L68.18 29.06L68.23 29.06L68.29 29.05L68.35 29.05L68.41 29.05L68.47 29.05L68.53 29.04L68.58 29.04L68.64 29.04L68.7 29.04L68.76 29.03L68.82 29.03L68.87 29.03L68.93 29.03L68.99 29.02L69.05 29.02L69.1 29.02L69.16 29.02L69.22 29.01L69.27 29.01L69.33 29.01L69.39 29.01L69.44 29L69.5 29L69.56 29L69.61 29L69.67 29L69.72 29L69.78 28.99L69.83 28.99L69.89 28.99L69.94 28.99L70.23 28.98L70.51 28.97L70.79 28.97L71.06 28.96L71.34 28.96L71.61 28.95L71.88 28.95L72.15 28.94L72.41 28.94L72.67 28.94L72.93 28.94L73.19 28.94L73.44 28.94L73.69 28.94L73.94 28.94L74.18 28.95L74.42 28.95L74.66 28.96L74.89 28.96L75.12 28.97L75.34 28.98L75.56 28.99L75.78 29L75.99 29.01L76.2 29.02L76.4 29.04L76.6 29.05L76.79 29.07L76.98 29.09L77.16 29.11L77.34 29.13L77.52 29.15L77.69 29.17L77.85 29.2L78.01 29.22L78.16 29.25L78.31 29.28L78.45 29.31L78.59 29.34L78.72 29.37L80 36.7L79.88 36.79L79.75 36.87L79.61 36.95L79.47 37.04L79.32 37.12L79.17 37.21L79.01 37.3L78.84 37.38L78.66 37.47L78.48 37.56L78.29 37.65L78.1 37.74L77.9 37.83L77.7 37.92L77.49 38.01L77.27 38.1L77.05 38.19L76.83 38.28L76.6 38.37L76.36 38.46L76.12 38.56L75.88 38.65L75.63 38.75L75.38 38.84L75.12 38.93L74.86 39.03L74.59 39.13L74.32 39.22L74.05 39.32L73.77 39.41L73.49 39.51L73.21 39.61L72.92 39.71L72.63 39.8L72.34 39.9L72.04 40L71.74 40.1L71.44 40.2L71.13 40.3L70.83 40.4L70.8 40.41L70.77 40.42L70.74 40.43L70.72 40.44L70.69 40.45L70.63 40.46L70.57 40.48L70.54 40.49L70.52 40.5L70.49 40.51L70.43 40.53L70.37 40.55L70.34 40.56L70.28 40.57L70.22 40.59L70.14 40.62L69.96 40.67L69.87 40.7L69.81 40.72L69.76 40.74L69.73 40.75L69.67 40.76L69.66 41.02L69.65 41.27L69.64 41.52L69.63 41.77L69.62 42.01L69.6 42.26L69.58 42.51L69.56 42.76L69.54 43.01L69.51 43.25L69.49 43.5L69.46 43.74L69.43 43.99L69.39 44.23L69.36 44.47L69.32 44.71L69.29 44.96L69.25 45.2L69.2 45.44L69.16 45.68L69.11 45.92L69.07 46.16L69.02 46.39L68.97 46.63L68.91 46.87L68.86 47.1L68.8 47.34L68.74 47.57L68.68 47.81L68.62 48.04L68.56 48.27L68.49 48.5L68.42 48.73L68.36 48.96L68.28 49.19L68.21 49.42L68.14 49.65L68.06 49.87L67.98 50.1L67.9 50.32L67.91 50.33L67.92 50.34L67.94 50.35L67.97 50.38L68 50.4L68.03 50.42L68.31 50.65L68.59 50.88L68.86 51.1L69.13 51.32L69.4 51.53L69.66 51.74L69.92 51.95L70.17 52.16L70.42 52.37L70.67 52.57L70.91 52.76L71.15 52.96L71.39 53.15L71.62 53.34L71.85 53.52L72.08 53.71L72.3 53.89L72.51 54.06L72.73 54.24L72.94 54.41L73.14 54.57L73.34 54.74L73.54 54.9L73.73 55.06L73.92 55.21L74.11 55.36L74.29 55.51L74.47 55.65L74.64 55.8L74.81 55.93L74.98 56.07L75.14 56.2L75.45 56.45L75.6 56.58L75.89 56.81L76.16 57.03L76.29 57.14L72.6 63.39L72.33 63.29L72.07 63.18L71.8 63.08L71.54 62.97L71.28 62.87L71.02 62.77L70.76 62.66L70.5 62.56L70.24 62.46L69.73 62.26L69.48 62.16L69.23 62.06L68.97 61.96L68.72 61.86L68.48 61.76L68.23 61.67L67.98 61.57L67.74 61.47L67.49 61.38L67.25 61.28L67.01 61.19L66.77 61.09L66.53 61L66.29 60.9L66.05 60.81L65.82 60.72L65.58 60.62L65.35 60.53L65.11 60.44L64.88 60.35L64.65 60.26L64.42 60.16L64.19 60.07L63.97 59.98L63.74 59.89L63.52 59.81L63.29 59.72L63.07 59.63L62.85 59.54L62.85 59.54L62.84 59.53L62.82 59.53L62.79 59.52L62.75 59.5L62.74 59.5L62.73 59.49L62.71 59.49L62.55 59.68L62.38 59.88L62.21 60.08L62.04 60.27L61.87 60.46L61.69 60.65L61.52 60.84L61.34 61.03L61.16 61.22L60.98 61.4L60.8 61.58L60.61 61.77L60.43 61.95L60.24 62.12L60.05 62.3L59.86 62.47L59.67 62.65L59.48 62.82L59.28 62.99L59.08 63.16L58.89 63.32L58.69 63.49L58.49 63.65L58.29 63.81L58.08 63.97L57.88 64.13L57.67 64.28L57.47 64.44L57.26 64.59L57.05 64.74L56.84 64.89L56.62 65.04L56.41 65.18L56.19 65.33L55.98 65.47L55.76 65.61L55.54 65.75L55.32 65.88L55.1 66.02L54.88 66.15L54.88 66.16L54.89 66.19L54.9 66.26L54.91 66.31L54.95 66.54L55 66.78L55.05 67.01L55.1 67.25L55.14 67.49L55.19 67.73L55.23 67.96L55.28 68.2L55.33 68.44L55.37 68.68L55.42 68.92L55.47 69.16L55.51 69.4L55.56 69.64L55.61 69.88L55.66 70.12L55.7 70.37L55.75 70.61L55.8 70.86L55.85 71.11L55.89 71.36L55.94 71.61L56.04 72.11L56.09 72.37L56.14 72.62L56.19 72.88L56.24 73.14L56.29 73.4L56.34 73.66L56.39 73.93L56.44 74.2L56.49 74.47L56.55 74.74L56.6 75.01L56.65 75.28L56.71 75.56L56.76 75.84L56.82 76.12L56.87 76.41L50.02 78.86L49.89 78.6L49.75 78.35L49.61 78.1L49.48 77.86L49.35 77.61L49.22 77.37L49.09 77.13L48.96 76.89L48.83 76.65L48.7 76.42L48.57 76.19L48.45 75.96L48.32 75.73L48.2 75.5L48.08 75.27L47.96 75.05L47.71 74.61L47.59 74.38L47.47 74.17L47.36 73.95L47.24 73.73L47.12 73.51L47 73.3L46.89 73.08L46.77 72.87L46.66 72.66L46.54 72.44L46.42 72.23L46.31 72.02L46.2 71.81L46.08 71.6L45.97 71.39L45.85 71.18L45.74 70.97L45.63 70.75L45.51 70.54L45.4 70.33L45.29 70.12L45.17 69.91L45.17 69.9L45.16 69.88L45.15 69.87L45.13 69.84L45.11 69.79L45.1 69.76L44.97 69.79L44.85 69.81L44.72 69.83L44.6 69.85L44.47 69.87L44.34 69.89L44.22 69.91L44.09 69.93L43.97 69.94L43.84 69.96L43.72 69.98L43.59 70L43.46 70.01L43.34 70.03L43.21 70.04L43.08 70.06L42.96 70.07L42.83 70.09L42.7 70.1L42.57 70.11L42.45 70.12L42.32 70.13L42.19 70.15L42.06 70.16L41.93 70.17L41.81 70.18L41.68 70.18L41.55 70.19L41.42 70.2L41.29 70.21L41.16 70.21L41.03 70.22L40.9 70.22L40.77 70.23L40.64 70.23L40.51 70.23L40.38 70.24L40.25 70.24L40.12 70.24L39.99 70.24L39.86 70.24L39.73 70.24L39.6 70.24L39.47 70.23L39.34 70.23L39.21 70.23L39.08 70.22L38.95 70.22L38.82 70.21L38.69 70.21L38.56 70.2L38.43 70.19L38.3 70.18L38.18 70.18L38.05 70.17L37.92 70.16L37.79 70.15L37.66 70.14L37.53 70.12L37.41 70.11L37.28 70.1L37.15 70.09L37.02 70.07L36.9 70.06L36.77 70.04L36.64 70.03L36.52 70.01L36.39 70L36.26 69.98L36.14 69.96L36.01 69.94L35.89 69.93L35.76 69.91L35.64 69.89L35.51 69.87L35.38 69.85L35.26 69.83L35.14 69.81L35.01 69.79L34.89 69.76L34.88 69.78L34.87 69.79L34.86 69.82L34.84 69.85L34.83 69.87L34.82 69.89L34.81 69.9L34.81 69.91L34.69 70.12L34.58 70.33L34.47 70.54L34.35 70.75L34.24 70.97L34.13 71.18L34.01 71.39L33.9 71.6L33.78 71.81L33.67 72.02L33.56 72.23L33.44 72.44L33.32 72.66L33.21 72.87L33.09 73.08L32.98 73.3L32.86 73.51L32.74 73.73L32.62 73.95L32.51 74.17L32.39 74.39L32.27 74.61L32.02 75.05L31.9 75.27L31.78 75.5L31.66 75.73L31.53 75.96L31.41 76.19L31.28 76.42L31.15 76.66L31.02 76.89L30.89 77.13L30.76 77.37L30.63 77.61L30.5 77.86L30.37 78.1L30.23 78.35L30.09 78.61L29.96 78.86L23.11 76.41L23.16 76.13L23.22 75.84L23.27 75.56L23.33 75.29L23.38 75.01L23.43 74.74L23.49 74.47L23.54 74.2L23.59 73.93L23.64 73.67L23.69 73.4L23.74 73.14L23.79 72.88L23.84 72.62L23.89 72.37L23.94 72.11L23.99 71.86L24.09 71.36L24.13 71.11L24.18 70.86L24.23 70.62L24.28 70.37L24.32 70.13L24.37 69.88L24.42 69.64L24.47 69.4L24.51 69.16L24.56 68.92L24.61 68.68L24.65 68.44L24.7 68.2L24.75 67.96L24.79 67.73L24.84 67.49L24.88 67.25L24.93 67.01L24.98 66.78L25.02 66.54L25.07 66.31L25.09 66.23L25.09 66.2L25.1 66.18L25.1 66.17L25.1 66.15L24.88 66.02L24.66 65.88L24.44 65.75L24.22 65.61L24 65.47L23.79 65.33L23.57 65.18L23.36 65.04L23.14 64.89L22.93 64.74L22.72 64.59L22.51 64.44L22.31 64.28L22.1 64.13L21.9 63.97L21.69 63.81L21.49 63.65L21.29 63.49L21.09 63.32L20.89 63.16L20.7 62.99L20.5 62.82L20.31 62.65L20.12 62.47L19.93 62.3L19.74 62.12L19.55 61.95L19.37 61.77L19.18 61.58L19 61.4L18.82 61.22L18.64 61.03L18.46 60.84L18.29 60.65L18.11 60.46L17.94 60.27L17.77 60.08L17.6 59.88L17.43 59.68L17.27 59.49L17.26 59.49L17.25 59.49L17.23 59.5L17.2 59.51L17.18 59.52L17.17 59.53L17.16 59.53L17.15 59.53L17.13 59.54L16.91 59.63L16.69 59.72L16.46 59.81L16.24 59.89L16.01 59.98L15.79 60.07L15.56 60.16L15.33 60.25L15.1 60.35L14.87 60.44L14.63 60.53L14.4 60.62L14.16 60.71L13.93 60.81L13.69 60.9L13.45 60.99L13.21 61.09L12.97 61.18L12.73 61.28L12.48 61.37L12.24 61.47L11.99 61.56L11.75 61.66L11.25 61.86L11 61.95L10.75 62.05L10.5 62.15L10.24 62.25L9.99 62.35L9.73 62.45L9.47 62.55L9.21 62.66L8.95 62.76L8.69 62.86L8.43 62.96L8.17 63.07L7.9 63.17L7.64 63.28L7.37 63.38L3.69 57.15L3.92 56.96L4.14 56.78L4.36 56.6L4.58 56.42L4.8 56.24L5.02 56.06L5.24 55.88L5.46 55.7L5.68 55.53L5.9 55.35L6.33 55L6.54 54.83L6.75 54.65L6.97 54.48L7.18 54.31L7.39 54.13L7.6 53.96L7.81 53.79L8.01 53.62L8.22 53.46L8.43 53.29L8.63 53.12L8.84 52.96L9.04 52.79L9.24 52.63L9.44 52.46L9.64 52.3L9.84 52.14L10.04 51.98L10.23 51.82L10.43 51.66L10.62 51.5L10.82 51.35L11.01 51.19L11.2 51.03L11.39 50.88L11.58 50.73L11.76 50.58L11.95 50.43L11.95 50.42L11.96 50.42L12 50.39L12.02 50.37L12.04 50.35L12.08 50.32L12 50.1L11.92 49.87L11.84 49.65L11.77 49.42L11.7 49.19L11.63 48.96L11.56 48.73L11.49 48.5L11.43 48.27L11.36 48.04L11.3 47.8L11.24 47.57L11.18 47.34L11.12 47.1L11.07 46.87L11.02 46.63L10.97 46.39L10.92 46.15L10.87 45.92L10.82 45.68L10.78 45.44L10.74 45.2L10.7 44.96L10.66 44.71L10.62 44.47L10.59 44.23L10.56 43.99L10.53 43.74L10.5 43.5L10.47 43.25L10.45 43L10.42 42.76L10.4 42.51L10.38 42.26L10.37 42.01L10.35 41.76L10.34 41.52L10.33 41.27L10.32 41.01L10.31 40.76L10.26 40.75L10.23 40.74L10.17 40.72L10.11 40.7L10.08 40.69L10.02 40.67L9.88 40.63L9.76 40.59L9.7 40.57L9.64 40.55L9.58 40.54L9.53 40.52L9.5 40.51L9.44 40.49L9.41 40.48L9.38 40.47L9.35 40.46L9.32 40.45L9.3 40.45L9.27 40.44L9.24 40.43L9.21 40.42L9.18 40.41L9.16 40.4L8.85 40.3L8.55 40.2L8.24 40.1L7.95 39.99L7.65 39.89L7.36 39.79L7.07 39.69L6.78 39.58L6.5 39.48L6.22 39.38L5.94 39.27L5.67 39.17L5.4 39.06L5.13 38.96L4.87 38.86L4.61 38.75L4.36 38.65L4.11 38.55L3.87 38.45L3.63 38.34L3.39 38.24L3.16 38.14L2.94 38.04L2.72 37.94L2.5 37.84L2.3 37.74L2.09 37.64L1.89 37.55L1.7 37.45L1.52 37.36L1.33 37.26L1.16 37.17L0.99 37.08L0.83 36.98L0.68 36.89L0.53 36.8L0.38 36.72L0.25 36.63L0.12 36.55L0 36.46L1.22 29.53L1.35 29.5L1.49 29.47L1.63 29.44L1.78 29.4L1.93 29.38L2.09 29.35L2.25 29.32L2.42 29.29L2.6 29.27L2.78 29.24L2.96 29.22L3.15 29.2L3.35 29.17L3.55 29.15L3.75 29.13L3.96 29.12L4.18 29.1L4.39 29.08L4.62 29.07L4.84 29.05L5.07 29.04L5.31 29.03L5.54 29.01L5.79 29L6.03 29L6.28 28.99L6.53 28.98L6.78 28.97L7.04 28.97L7.3 28.97L7.56 28.96L7.83 28.96L8.1 28.96L8.37 28.96L8.64 28.96L8.92 28.97L9.19 28.97L9.47 28.97L9.76 28.98L10.04 28.99L10.09 28.99L10.15 28.99L10.2 28.99L10.26 29L10.31 29L10.37 29L10.43 29L10.48 29L10.54 29L10.6 29.01L10.65 29.01L10.71 29.01L10.77 29.01L10.82 29.02L10.88 29.02L10.94 29.02L10.99 29.02L11.05 29.03L11.11 29.03L11.17 29.03L11.22 29.03L11.28 29.04L11.34 29.04L11.4 29.04L11.46 29.04L11.52 29.05L11.57 29.05L11.69 29.05L11.75 29.06L11.81 29.06L11.87 29.06L11.93 29.06L12.04 29.07L12.16 29.08L12.34 29.08L12.42 28.87L12.51 28.66L12.59 28.45L12.68 28.23L12.77 28.02L12.86 27.81L12.95 27.6L13.05 27.4L13.14 27.19L13.24 26.98L13.34 26.78L13.44 26.57L13.54 26.37L13.64 26.17L13.74 25.96L13.85 25.76L13.96 25.56L14.07 25.36L14.18 25.16L14.29 24.97L14.4 24.77L14.51 24.57L14.63 24.38L14.75 24.19L14.86 23.99L14.98 23.8L15.1 23.61L15.23 23.42L15.35 23.23L15.48 23.04L15.6 22.86L15.73 22.67L15.86 22.49L15.99 22.3L16.12 22.12L16.26 21.94L16.39 21.76L16.53 21.58L16.66 21.4L16.8 21.22L16.74 21.12L16.68 21.02L16.64 20.97L16.61 20.92L16.58 20.87L16.55 20.82L16.52 20.77L16.49 20.72L16.45 20.67L16.42 20.62L16.39 20.57L16.36 20.52L16.33 20.47L16.3 20.42L16.27 20.37L16.23 20.32L16.2 20.27L16.17 20.22L16.14 20.17L16.11 20.13L16.08 20.08L16.05 20.03L16.02 19.98L15.99 19.93L15.96 19.88L15.93 19.83L15.9 19.78L15.87 19.73L15.84 19.69L15.81 19.64L15.78 19.59L15.75 19.54L15.72 19.49L15.69 19.45L15.66 19.4L15.63 19.35L15.6 19.3L15.57 19.26L15.43 19.01L15.28 18.77L15.14 18.53L15 18.29L14.86 18.05L14.72 17.81L14.59 17.58L14.46 17.35L14.33 17.12L14.2 16.89L14.08 16.67L13.96 16.45L13.84 16.23L13.72 16.01L13.61 15.8L13.5 15.59L13.39 15.38L13.29 15.17L13.19 14.97L13.09 14.77L12.99 14.57L12.9 14.38L12.81 14.18L12.72 14L12.63 13.81L12.55 13.63L12.47 13.45L12.4 13.27L12.33 13.1L12.26 12.93L12.19 12.77L12.13 12.61L12.07 12.45L12.01 12.3L11.96 12.15L11.91 12L11.86 11.86L11.82 11.72L11.78 11.58L11.74 11.45L17.28 6.9L17.4 6.95L17.52 7.02L17.65 7.08L17.77 7.15L17.91 7.23L18.04 7.31L18.18 7.39L18.32 7.47L18.46 7.56L18.6 7.66L18.75 7.75L18.9 7.86L19.06 7.96L19.21 8.07L19.37 8.18L19.53 8.29L19.69 8.41L19.86 8.53L20.03 8.66L20.2 8.79L20.37 8.92L20.54 9.06L20.72 9.19L20.9 9.34L21.08 9.48L21.26 9.63L21.45 9.78L21.64 9.94L21.83 10.09L22.02 10.26L22.22 10.42L22.41 10.59L22.61 10.76L22.81 10.93L23.01 11.11L23.22 11.29L23.42 11.47L23.63 11.65L23.84 11.84L24.05 12.03L24.09 12.07L24.13 12.1L24.18 12.14L24.22 12.18L24.26 12.21L24.3 12.25L24.34 12.29L24.38 12.33L24.42 12.37L24.47 12.4L24.51 12.44L24.55 12.48L24.59 12.52L24.63 12.56L24.67 12.6L24.72 12.63L24.76 12.67L24.8 12.71L24.84 12.75L24.88 12.79L24.93 12.83L24.97 12.87L25.01 12.91L25.05 12.95L25.1 12.99L25.14 13.03L25.18 13.07L25.22 13.11L25.27 13.15L25.31 13.19L25.35 13.23L25.4 13.27L25.44 13.31L25.48 13.35L25.52 13.39L25.57 13.43L25.65 13.51L25.74 13.59L25.94 13.48L26.13 13.38L26.33 13.27L26.53 13.17L26.72 13.07L26.92 12.97L27.12 12.87L27.32 12.77L27.53 12.67L27.73 12.58L27.93 12.49L28.14 12.4L28.34 12.31L28.55 12.22L28.75 12.13L28.96 12.05L29.17 11.96L29.38 11.88L29.59 11.8L29.8 11.72L30.01 11.64L30.22 11.57L30.43 11.49L30.65 11.42L30.86 11.35L31.08 11.28L31.29 11.21L31.51 11.15L31.72 11.08L31.94 11.02L32.16 10.96L32.38 10.9L32.6 10.84L32.82 10.78L33.04 10.73L33.26 10.68L33.48 10.63L33.71 10.58L33.93 10.53L34.15 10.48L34.17 10.36L34.18 10.31L34.18 10.25L34.19 10.19L34.2 10.13L34.21 10.07L34.21 10.01L34.22 9.95L34.23 9.89L34.23 9.84L34.24 9.78L34.25 9.72L34.26 9.66L34.26 9.6L34.27 9.54L34.28 9.49L34.29 9.43L34.3 9.37L34.3 9.31L34.31 9.26L34.32 9.2L34.33 9.14L34.33 9.08L34.34 9.03L34.35 8.97L34.36 8.91L34.36 8.86L34.37 8.8L34.38 8.74L34.39 8.69L34.39 8.63L34.4 8.58L34.41 8.52L34.42 8.46L34.43 8.41L34.43 8.35L34.44 8.3L34.45 8.24L34.46 8.19L34.5 7.91L34.54 7.63L34.58 7.35L34.62 7.08L34.67 6.81L34.71 6.55L34.75 6.29L34.79 6.03L34.84 5.78L34.88 5.53L34.92 5.29L34.97 5.05L35.01 4.81L35.05 4.58L35.1 4.35L35.14 4.13L35.19 3.91L35.23 3.69L35.28 3.48L35.32 3.27L35.37 3.07L35.42 2.87L35.46 2.67L35.51 2.48L35.56 2.3L35.61 2.11L35.65 1.93L35.7 1.76L35.75 1.59L35.8 1.42L35.85 1.26L35.9 1.1L35.95 0.95L36.01 0.8L36.06 0.66L36.11 0.52L36.16 0.38L36.22 0.25L36.27 0.12L36.32 0L43.66 0L43.71 0.12L43.77 0.25ZM37.34 15.03L36.05 15.2L34.78 15.43L33.53 15.73L32.3 16.09L31.1 16.51L29.94 16.99L28.8 17.52L27.69 18.11L26.62 18.75L25.58 19.44L24.58 20.18L23.62 20.97L22.69 21.8L21.82 22.68L20.98 23.6L20.19 24.57L19.45 25.57L18.76 26.6L18.12 27.68L17.53 28.78L17 29.92L16.52 31.09L16.1 32.29L15.74 33.52L15.44 34.77L15.21 36.04L15.04 37.33L14.94 38.65L14.9 39.98L14.94 41.31L15.04 42.63L15.21 43.92L15.44 45.19L15.74 46.44L16.1 47.67L16.52 48.87L17 50.04L17.53 51.17L18.12 52.28L18.76 53.35L19.45 54.39L20.19 55.39L20.98 56.35L21.82 57.28L22.69 58.15L23.62 58.99L24.58 59.78L25.58 60.52L26.62 61.21L27.69 61.85L28.8 62.44L29.94 62.97L31.1 63.45L32.3 63.87L33.53 64.23L34.78 64.53L36.05 64.76L37.34 64.93L38.66 65.03L39.99 65.07L41.32 65.03L42.64 64.93L43.93 64.76L45.2 64.53L46.45 64.23L47.68 63.87L48.88 63.45L50.05 62.97L51.18 62.44L52.29 61.85L53.36 61.21L54.4 60.52L55.4 59.78L56.36 58.99L57.29 58.15L58.16 57.28L59 56.35L59.79 55.39L60.53 54.39L61.22 53.35L61.86 52.28L62.45 51.17L62.98 50.04L63.46 48.87L63.88 47.67L64.24 46.44L64.54 45.19L64.77 43.92L64.94 42.63L65.04 41.31L65.08 39.98L65.04 38.65L64.94 37.33L64.77 36.04L64.54 34.77L64.24 33.52L63.88 32.29L63.46 31.09L62.98 29.92L62.45 28.78L61.86 27.68L61.22 26.6L60.53 25.57L59.79 24.57L59 23.6L58.16 22.68L57.29 21.8L56.36 20.97L55.4 20.18L54.4 19.44L53.36 18.75L52.29 18.11L51.18 17.52L50.05 16.99L48.88 16.51L47.68 16.09L46.45 15.73L45.2 15.43L43.93 15.2L42.64 15.03L41.32 14.92L39.99 14.89L38.66 14.92L37.34 15.03Z" id="cgDrlPgNL"></path><path d="M42.61 20.08L43.88 20.28L45.12 20.57L46.33 20.93L47.51 21.37L48.66 21.87L49.76 22.44L50.82 23.08L51.84 23.78L52.82 24.54L53.74 25.36L54.61 26.23L55.43 27.15L56.19 28.13L56.89 29.14L57.53 30.21L58.1 31.31L58.6 32.46L59.04 33.64L59.4 34.85L59.68 36.09L59.89 37.36L60.02 38.66L60.06 39.98L60.02 41.3L59.89 42.6L59.68 43.87L59.4 45.11L59.04 46.32L58.6 47.5L58.1 48.65L57.53 49.75L56.89 50.81L56.19 51.83L55.43 52.81L54.61 53.73L53.74 54.6L52.82 55.42L51.84 56.18L50.82 56.88L49.76 57.52L48.66 58.09L47.51 58.59L46.33 59.03L45.12 59.39L43.88 59.68L42.61 59.88L41.31 60.01L39.99 60.05L38.67 60.01L37.37 59.88L36.1 59.68L34.86 59.39L33.65 59.03L32.47 58.59L31.32 58.09L30.22 57.52L29.16 56.88L28.14 56.18L27.16 55.42L26.24 54.6L25.37 53.73L24.55 52.81L23.79 51.83L23.09 50.81L22.45 49.75L21.88 48.65L21.38 47.5L20.94 46.32L20.58 45.11L20.3 43.87L20.09 42.6L19.96 41.3L19.92 39.98L19.96 38.66L20.09 37.36L20.3 36.09L20.58 34.85L20.94 33.64L21.38 32.46L21.88 31.31L22.45 30.21L23.09 29.14L23.79 28.13L24.55 27.15L25.37 26.23L26.24 25.36L27.16 24.54L28.14 23.78L29.16 23.08L30.22 22.44L31.32 21.87L32.47 21.37L33.65 20.93L34.86 20.57L36.1 20.28L37.37 20.08L38.67 19.95L39.99 19.91L41.31 19.95L42.61 20.08ZM37.3 27.72L36.03 28.07L34.81 28.55L33.66 29.15L32.58 29.85L31.59 30.67L30.68 31.57L29.87 32.57L29.16 33.65L28.56 34.8L28.09 36.01L27.74 37.29L27.52 38.61L27.45 39.98L27.52 41.35L27.74 42.67L28.09 43.94L28.56 45.16L29.16 46.31L29.87 47.39L30.68 48.38L31.59 49.29L32.58 50.1L33.66 50.81L34.81 51.41L36.03 51.88L37.3 52.24L38.62 52.45L39.99 52.52L41.36 52.45L42.68 52.24L43.96 51.88L45.17 51.41L46.32 50.81L47.4 50.1L48.4 49.29L49.3 48.38L50.11 47.39L50.82 46.31L51.42 45.16L51.9 43.94L52.25 42.67L52.46 41.35L52.53 39.98L52.46 38.61L52.25 37.29L51.9 36.01L51.42 34.8L50.82 33.65L50.11 32.57L49.3 31.57L48.4 30.67L47.4 29.85L46.32 29.15L45.17 28.55L43.96 28.07L42.68 27.72L41.36 27.51L39.99 27.43L38.62 27.51L37.3 27.72Z" id="c2SYpSwPNB"></path></defs><g><g><g><use xlink:href="#cgDrlPgNL" opacity="1" fill="#e8bf28" fill-opacity="1"></use></g><g><use xlink:href="#c2SYpSwPNB" opacity="1" fill="#e8bf28" fill-opacity="1"></use></g></g></g></svg>